# xmcd
#
# Track frame offsets:
#	150
#	12845
#	25229
#	36601
#	46996
#	70688
#	82461
#	92038
#	102975
#	112873
#	122675
#	133833
#	146330
#
# Disc length: 2119 seconds
#
# Revision: 1
# Processed by: cddbd v1.4PL0 Copyright (c) Steve Scherf et al.
# Submitted via: audiograbber 1.80
#
DISCID=b208450d
DTITLE=Rosie Flores - Rockabilly Filly
DYEAR=1900
DGENRE=
TTITLE0=Crazy Mixed Emotions
TTITLE1=Blues Keep Callin'
TTITLE2=His Rockin' Little Angel
TTITLE3=Wrong Side Of His Heart
TTITLE4=Boxcars
TTITLE5=Poor Girl's Town
TTITLE6=Hard Times
TTITLE7=Stranger
TTITLE8=Walking Dream
TTITLE9=You Tear Me Up
TTITLE10=Bop Street
TTITLE11=Rock Your Baby
TTITLE12=Don't Let Our Love Die
EXTD=
EXTT0=
EXTT1=
EXTT2=
EXTT3=
EXTT4=
EXTT5=
EXTT6=
EXTT7=
EXTT8=
EXTT9=
EXTT10=
EXTT11=
EXTT12=
PLAYORDER=
